# xmcd CD database file
#
# Track frame offsets:
#	150
#	28929
#	53476
#	66352
#	95722
#	108768
#	125764
#	157251
#	180396
#
# Disc length: 2967 seconds
#
# Revision: 0
# Processed by: cddbd v1.5.2PL0 Copyright (c) Steve Scherf et al.
# Submitted via: CDex 1.70beta2
#
DISCID=7b0b9509
DTITLE=Abdullah Ibrahim  - Sotho Blue
DYEAR=2010
DGENRE=Jazz
TTITLE0=Calypso Minor
TTITLE1=Sotho Blue
TTITLE2=Abide
TTITLE3=Nisa
TTITLE4=The Mountain
TTITLE5=The Wedding
TTITLE6=Glass Enclosure
TTITLE7=Star Dance
TTITLE8=Joan Capetown Flower
EXTD=YEAR: 2010
EXTT0=
EXTT1=
EXTT2=
EXTT3=
EXTT4=
EXTT5=
EXTT6=
EXTT7=
EXTT8=
PLAYORDER=
